<svg xmlns="http://www.w3.org/2000/svg" viewBox="0 0 605 605"><defs><style>.cls-1{fill:#16125a;stroke:#ff4f4f;stroke-miterlimit:10;stroke-width:5px;}.cls-2{fill:#ff4f4f;}</style></defs><title>logo</title><g id="Forme"><rect class="cls-1" x="2.5" y="2.5" width="600" height="600" rx="25" ry="25"/></g><g id="Texte"><path class="cls-2" d="M735.07,483.54V381.79h46c16.68,0,30.87,14,30.87,30.25a29.36,29.36,0,0,1-6.67,18.31c7.09,5.56,11.82,14.11,11.82,23.33,0,16.14-14,29.85-30.59,29.85Zm40.6-62a8.82,8.82,0,1,0,0-17.64H762.46v17.64Zm5.14,40a8.91,8.91,0,0,0,9-8.82,9.09,9.09,0,0,0-9-8.82H762.46v17.64Z" transform="translate(-671.5 -208.5)"/><path class="cls-2" d="M833.5,381.79h64.79V403.9h-37.4v16.55H894V443H860.89V461.7h37.4v21.84H833.5Z" transform="translate(-671.5 -208.5)"/><path class="cls-2" d="M910.94,483.54,959.6,381.79H972l49.08,101.75H993.67l-6.4-13.3H944.59l-6.26,13.3Zm44.35-35.82h21.27L966,425.34Z" transform="translate(-671.5 -208.5)"/><path class="cls-2" d="M1025.78,381.65H1108v26.59h-27.67v75.29h-27.39V408.24h-27.11Z" transform="translate(-671.5 -208.5)"/><path class="cls-2" d="M1167.17,456.81h40.32v26.73h-87.73l44.35-74.89H1122.4V381.79h89.12Z" transform="translate(-671.5 -208.5)"/><path class="cls-2" d="M815.25,603.18V515.87h20V654l-81.06-84v84h-20V515.87Z" transform="translate(-671.5 -208.5)"/><path class="cls-2" d="M926.08,578.29a20.07,20.07,0,0,1,9.37,5.59,35.94,35.94,0,0,1,6.43,10.91q2.94,7.18,2.94,19.67,0,14-3.12,21.91t-8.18,11.84a24.16,24.16,0,0,1-11.58,4.85,94.06,94.06,0,0,1-13.33.93H855.5V515.87h47.05q10.66,0,16.82,4.18a29.69,29.69,0,0,1,9.37,9.85,34,34,0,0,1,4.14,11.7,68.74,68.74,0,0,1,.92,9.94,58.12,58.12,0,0,1-1.19,12.91,43.67,43.67,0,0,1-2.67,8.27A23.05,23.05,0,0,1,926.08,578.29ZM877,572.09h19.85a16.12,16.12,0,0,0,11.67-4.54q4.69-4.54,4.69-14a27.59,27.59,0,0,0-.64-5.37,17.74,17.74,0,0,0-2.48-6,17.1,17.1,0,0,0-5.05-5,14.54,14.54,0,0,0-8.18-2.13H877Zm28.86,63.11a56.31,56.31,0,0,0,6.52-.37,11.09,11.09,0,0,0,5.7-2.33,13.7,13.7,0,0,0,4-6.33q1.56-4.37,1.56-12.57a32.88,32.88,0,0,0-1.47-10.71,16.06,16.06,0,0,0-4-6.52,13,13,0,0,0-5.7-3.16,26.53,26.53,0,0,0-6.71-.84H877V635.2Z" transform="translate(-671.5 -208.5)"/><path class="cls-2" d="M985.08,654H965V515.87h20Z" transform="translate(-671.5 -208.5)"/><path class="cls-2" d="M1043.72,536.16H1005.3V515.87h96.5v20.29h-38V654h-20Z" transform="translate(-671.5 -208.5)"/><path class="cls-2" d="M1207.3,515.68l-55.51,118.77h55.51V654h-87.12l55.33-118h-48.16V515.68Z" transform="translate(-671.5 -208.5)"/></g></svg>