<svg id="Capa_1" data-name="Capa 1" xmlns="http://www.w3.org/2000/svg" viewBox="0 0 512 328.32"><defs><style>.cls-1{fill:#ff4f4f;}</style></defs><title>undo</title><path class="cls-1" d="M501,420.16a10.91,10.91,0,0,1-10.15-6.64h0c-1.27-3-32.94-74-151.34-88.1-24.66-3-54.2-4.53-90.07-4.8v88.54a11,11,0,0,1-17.12,9.12L4.88,265.16a11,11,0,0,1,0-18.29L232.45,93.72a10.81,10.81,0,0,1,11.29-.56,10.92,10.92,0,0,1,5.82,9.64v82.4C299,191.64,512,229.92,512,409.26A11,11,0,0,1,503.19,420,13.57,13.57,0,0,1,501,420.16Z" transform="translate(0 -91.84)"/></svg>