<svg id="Capa_1" data-name="Capa 1" xmlns="http://www.w3.org/2000/svg" viewBox="0 0 495.28 512"><defs><style>.cls-1{fill:#ff4f4f;}</style></defs><title>download</title><path class="cls-1" d="M434.87,326.3v117H77.11v-117H8.35V477.64A34.37,34.37,0,0,0,42.78,512H469.2a34.37,34.37,0,0,0,34.43-34.36V326.3Z" transform="translate(-8.35 0)"/><path class="cls-1" d="M249.7,314.7l-98.44-119s-15-14.14,1.26-14.14H208V8.44S205.79,0,218.49,0h78.09c9.15,0,8.95,7.1,8.95,7.1V178h51.2c19.71,0,4.87,14.81,4.87,14.81S277.84,304,266.16,315.69C257.76,324.15,249.7,314.7,249.7,314.7Z" transform="translate(-8.35 0)"/></svg>