<svg id="Capa_1" data-name="Capa 1" xmlns="http://www.w3.org/2000/svg" viewBox="0 0 410.27 512"><defs><style>.cls-1{fill:#ff4f4f;}</style></defs><title>pause</title><path class="cls-1" d="M193.49,440.69A71.32,71.32,0,0,1,122.17,512h0a71.32,71.32,0,0,1-71.31-71.31V71.31A71.32,71.32,0,0,1,122.17,0h0a71.32,71.32,0,0,1,71.31,71.31Z" transform="translate(-50.86)"/><path class="cls-1" d="M461.13,440.69A71.32,71.32,0,0,1,389.82,512h0a71.32,71.32,0,0,1-71.31-71.31V71.31A71.33,71.33,0,0,1,389.82,0h0a71.32,71.32,0,0,1,71.31,71.31Z" transform="translate(-50.86)"/></svg>